<?xml version="1.0" encoding="UTF-8"?>
<svg version="1.1" xmlns="http://www.w3.org/2000/svg" width="492" height="295">
<path d="M0 0 C162.36 0 324.72 0 492 0 C492 97.35 492 194.7 492 295 C329.64 295 167.28 295 0 295 C0 197.65 0 100.3 0 0 Z " fill="#FDFDFD" transform="translate(0,0)"/>
<path d="M0 0 C1.08216797 -0.020625 2.16433594 -0.04125 3.27929688 -0.0625 C17.17426945 -0.12918253 30.00170617 4.02578987 40.3828125 13.5625 C50.69454991 24.7551396 54.25059645 38.12967238 54.2121582 52.97949219 C54.21726913 54.01331024 54.22238007 55.0471283 54.22764587 56.11227417 C54.2414693 59.50720113 54.24059024 62.90192336 54.23828125 66.296875 C54.24217275 68.67425613 54.24650835 71.05163656 54.25126648 73.42901611 C54.25871358 78.40517432 54.25844878 83.38126155 54.25317383 88.35742188 C54.24738775 94.70647729 54.26429705 101.05524018 54.2875185 107.40424728 C54.30231584 112.31331048 54.30311927 117.22230425 54.30000877 122.1313858 C54.30051918 124.47074207 54.30570375 126.81010251 54.31582069 129.14943695 C54.42381943 157.61801211 54.42381943 157.61801211 48 169.75 C47.51660156 170.6884375 47.03320312 171.626875 46.53515625 172.59375 C39.58917355 184.1420831 28.08669819 190.02454766 15.58984375 193.99609375 C0.02833542 197.86645174 -18.86168601 196.13572997 -32.59765625 187.90625 C-44.13681578 180.15251998 -50.67516225 169.36707889 -53.5990448 155.7514801 C-54.22535878 151.01957516 -54.22662783 146.35410905 -54.23950195 141.58569336 C-54.24607315 140.52305267 -54.25264435 139.46041199 -54.25941467 138.36557007 C-54.27908607 134.85699382 -54.29079773 131.3484603 -54.30078125 127.83984375 C-54.30485678 126.63695772 -54.3089323 125.43407169 -54.31313133 124.19473457 C-54.33396766 117.82554422 -54.34827891 111.45637524 -54.35766602 105.0871582 C-54.36871423 98.53283289 -54.40310337 91.97884857 -54.44283772 85.42464352 C-54.46907494 80.36374817 -54.47736427 75.30293315 -54.48094749 70.24197578 C-54.48579646 67.82724268 -54.49736173 65.41251276 -54.51598549 62.9978466 C-54.65116759 44.30641703 -53.77268853 28.35572527 -40.3125 14 C-33.2194974 7.32502607 -25.46222325 3.54221321 -16.0625 1.25 C-15.46945068 1.07799072 -14.87640137 0.90598145 -14.26538086 0.72875977 C-9.60534074 -0.28402298 -4.74885144 0.02207485 0 0 Z " fill="#214B9A" transform="translate(302.0625,7.75)"/>
<path d="M0 0 C12.07889249 8.99877491 17.20912786 19.74141527 19.8984375 34.30078125 C20.70104207 40.40598684 20.43124894 46.60280409 20.34375 52.74609375 C15.8231161 52.82015892 11.302834 52.8746542 6.78173828 52.91088867 C5.24326426 52.92599086 3.70483339 52.94647421 2.16650391 52.97241211 C-0.04275141 53.00873449 -2.25143848 53.02580494 -4.4609375 53.0390625 C-5.49539505 53.06228828 -5.49539505 53.06228828 -6.55075073 53.08598328 C-8.49169922 53.08666992 -8.49169922 53.08666992 -11.65625 52.74609375 C-14.49042736 48.49482772 -14.44275361 44.30135718 -14.99609375 39.2890625 C-16.29993458 32.29152619 -19.12873819 28.80712284 -24.65625 24.74609375 C-29.43617086 21.89016619 -34.24362028 22.04889906 -39.65625 22.74609375 C-45.13090018 24.56176056 -47.93108838 27.6541218 -50.59375 32.68359375 C-53.60978062 39.13483214 -53.80763089 45.50956609 -53.81738281 52.49853516 C-53.82234772 53.35795715 -53.82731262 54.21737915 -53.83242798 55.10284424 C-53.8469821 57.93445653 -53.85384134 60.76601276 -53.859375 63.59765625 C-53.86220238 64.57010662 -53.86502975 65.54255699 -53.86794281 66.54447556 C-53.88291051 71.69355285 -53.89215444 76.84260233 -53.89648438 81.99169922 C-53.90195648 87.2838333 -53.92596489 92.57570847 -53.95445633 97.86776161 C-53.97317812 101.96012083 -53.97829343 106.05241895 -53.97982025 110.14481735 C-53.98282726 112.09425645 -53.99078894 114.04369497 -54.00400543 115.99309158 C-54.58560129 135.05837207 -54.58560129 135.05837207 -46.65625 151.74609375 C-42.63857751 154.72188314 -39.67666393 155.15339286 -34.71875 155.12109375 C-33.53410156 155.12882813 -32.34945312 155.1365625 -31.12890625 155.14453125 C-26.30932 154.59155285 -22.98803785 153.00177944 -19.46875 149.68359375 C-16.1854597 144.36239913 -14.73912488 138.50306794 -14.15625 132.30859375 C-13.65625 128.74609375 -13.65625 128.74609375 -12.56713867 127.04174805 C-9.62769207 125.04869284 -7.09442616 125.41011608 -3.58203125 125.453125 C-2.8981987 125.45736984 -2.21436615 125.46161469 -1.5098114 125.46598816 C0.67094561 125.48276022 2.85077309 125.52040718 5.03125 125.55859375 C6.51105435 125.57364261 7.9908732 125.58733067 9.47070312 125.59960938 C13.09535336 125.63265806 16.71946094 125.68442929 20.34375 125.74609375 C20.69984337 143.79255388 17.80388219 159.85439258 4.91796875 173.421875 C-9.34706729 186.30153576 -25.6809756 187.76346747 -43.99462891 186.921875 C-56.22843177 186.11391884 -67.76511377 180.79382975 -76.1328125 171.69140625 C-85.87241997 159.25467671 -88.97317135 145.72349154 -88.9309082 130.15673828 C-88.93601913 129.16164246 -88.94113007 128.16654663 -88.94639587 127.14129639 C-88.96017299 123.8871033 -88.95934413 120.63312484 -88.95703125 117.37890625 C-88.96092461 115.09406457 -88.96526059 112.8092236 -88.97001648 110.52438354 C-88.97745312 105.74849088 -88.97720593 100.97267218 -88.97192383 96.19677734 C-88.96613181 90.1056055 -88.98306653 84.01473799 -89.0062685 77.92361641 C-89.02106798 73.20842752 -89.02186911 68.49331088 -89.01875877 63.77810287 C-89.01926883 61.53364331 -89.02444669 59.28917937 -89.03457069 57.04474258 C-89.10632328 38.91546885 -88.63795063 20.42511955 -75.3984375 6.328125 C-55.5799165 -11.66851402 -22.58844839 -14.70449319 0 0 Z " fill="#224C9B" transform="translate(206.65625,16.25390625)"/>
<path d="M0 0 C28.05 0 56.1 0 85 0 C85 10.23 85 20.46 85 31 C68.17 31 51.34 31 34 31 C34 47.17 34 63.34 34 80 C48.52 80 63.04 80 78 80 C78 90.23 78 100.46 78 111 C63.48 111 48.96 111 34 111 C34 128.49 34 145.98 34 164 C50.83 164 67.66 164 85 164 C85 174.23 85 184.46 85 195 C75.21175918 195.13574958 65.42414716 195.24574304 55.63517666 195.31087303 C51.08935408 195.34213805 46.54421089 195.38452121 41.9987793 195.45263672 C37.60910972 195.51800367 33.22009206 195.55374236 28.82997322 195.56926346 C27.1582113 195.58031893 25.48648363 195.60190857 23.81500053 195.63438034 C9.07299461 195.90928766 9.07299461 195.90928766 4.54321289 192.21337891 C0.34700299 187.70595426 -0.29001777 183.51398277 -0.24050903 177.4956665 C-0.24221788 176.73679162 -0.24392673 175.97791673 -0.24568737 175.19604564 C-0.2489831 172.65176006 -0.23797725 170.10773787 -0.22705078 167.56347656 C-0.22648669 165.7402497 -0.2268032 163.91702238 -0.22793579 162.09379578 C-0.22851037 157.14167154 -0.21673906 152.18964391 -0.20278788 147.23754215 C-0.19029802 142.06321259 -0.18911139 136.88888089 -0.18673706 131.71453857 C-0.18051716 121.91505224 -0.16409943 112.11561045 -0.14403808 102.31614375 C-0.11751836 89.07492608 -0.10671056 75.83369625 -0.09503365 62.59245872 C-0.07621922 41.72827244 -0.03637691 20.86418017 0 0 Z " fill="#214B9A" transform="translate(13,8)"/>
<path d="M0 0 C10.89 0 21.78 0 33 0 C33 64.68 33 129.36 33 196 C24.09 196 15.18 196 6 196 C-0.11405216 189.88594784 -0.11405216 189.88594784 -0.12442017 184.60829163 C-0.12082489 183.8357756 -0.11722961 183.06325958 -0.11352539 182.26733398 C-0.11367142 181.4576416 -0.11381744 180.64794922 -0.1139679 179.8137207 C-0.11326854 177.12448492 -0.1054751 174.43531751 -0.09765625 171.74609375 C-0.09579215 169.88664284 -0.09436821 168.02719144 -0.09336853 166.16773987 C-0.08954271 161.26370904 -0.07971188 156.35970764 -0.06866455 151.45568848 C-0.05845181 146.45548908 -0.05387121 141.45528494 -0.04882812 136.45507812 C-0.03808967 126.63670579 -0.02101248 116.81835534 0 107 C1.98 106.505 1.98 106.505 4 106 C3.5903503 102.387492 3.5903503 102.387492 1.47957897 99.58710766 C-0.39398509 97.57738197 -0.37117907 96.63028344 -0.36076355 93.91877747 C-0.36488754 93.09006638 -0.36901154 92.26135529 -0.3732605 91.40753174 C-0.36247467 90.50194519 -0.35168884 89.59635864 -0.34057617 88.66333008 C-0.34101425 87.70704208 -0.34145233 86.75075409 -0.34190369 85.76548767 C-0.3398112 82.59996223 -0.31645816 79.43496433 -0.29296875 76.26953125 C-0.28737444 74.07663767 -0.28310356 71.88374034 -0.28010559 69.69084167 C-0.26864387 63.91543246 -0.23916511 58.1402491 -0.20599365 52.3649292 C-0.17532146 46.47313492 -0.16160635 40.5813042 -0.14648438 34.68945312 C-0.11429677 23.12618682 -0.06151785 11.56314751 0 0 Z " fill="#214B9A" transform="translate(451,7)"/>
<path d="M0 0 C10.89 0 21.78 0 33 0 C33.11288582 12.70851193 33.20465007 25.4166918 33.25906086 38.12559128 C33.28517311 44.02662507 33.32060171 49.92729858 33.37719727 55.828125 C33.43145771 61.52100422 33.46140826 67.21353654 33.47438622 72.90665436 C33.48363673 75.08045159 33.50170064 77.25422948 33.52865028 79.42787933 C33.56486053 82.46894098 33.56994861 85.50856273 33.56762695 88.54980469 C33.58560333 89.45179596 33.60357971 90.35378723 33.62210083 91.28311157 C33.57131685 97.41625388 33.57131685 97.41625388 30.46452332 100.59063721 C29.65123062 101.05572693 28.83793793 101.52081665 28 102 C28.33 103.32 28.66 104.64 29 106 C30.32 106.33 31.64 106.66 33 107 C33 136.37 33 165.74 33 196 C8 196 8 196 2 191 C-0.59997758 187.48472193 -0.27476043 183.62911529 -0.24050903 179.41973877 C-0.24221788 178.65269678 -0.24392673 177.88565479 -0.24568737 177.0953691 C-0.24898336 174.5234455 -0.23797681 171.95178241 -0.22705078 169.37988281 C-0.22648669 167.53695176 -0.22680318 165.69402026 -0.22793579 163.85108948 C-0.22851039 158.84524838 -0.21673872 153.83950283 -0.20278788 148.83368397 C-0.19029839 143.60329992 -0.18911142 138.37291375 -0.18673706 133.14251709 C-0.18051705 123.23678309 -0.16409918 113.33109315 -0.14403808 103.42537856 C-0.12169529 92.14860205 -0.11068973 80.87182344 -0.10064721 69.59503031 C-0.07973342 46.3966616 -0.04414517 23.19833512 0 0 Z " fill="#214B9A" transform="translate(380,7)"/>
<path d="M0 0 C6.97152491 4.10775724 9.93330805 8.66530382 12.15468216 16.32389641 C13.12496547 20.49466065 13.20815367 24.49767153 13.17724609 28.76391602 C13.18250305 29.67750885 13.18776001 30.59110168 13.19317627 31.53237915 C13.2062614 34.51916156 13.1976799 37.50540072 13.1875 40.4921875 C13.18952386 42.58625896 13.19243789 44.68032974 13.19619751 46.7743988 C13.20060516 51.14939121 13.19423946 55.52419907 13.18017578 59.89916992 C13.16307436 65.48970743 13.17294125 71.07981308 13.19089317 76.67033482 C13.2017641 80.98991617 13.19826966 85.30939613 13.1905098 89.62898064 C13.18851749 91.68973785 13.19093276 93.75050445 13.19794846 95.81125069 C13.20561874 98.69676025 13.19388139 101.58158229 13.17724609 104.46704102 C13.18635513 105.72741936 13.18635513 105.72741936 13.19564819 107.01325989 C13.10766375 115.30537426 10.96414876 122.46430783 5.7890625 129.05078125 C0.65678055 133.56096842 -4.45818088 133.39052798 -11.0390625 133.33203125 C-16.38176866 132.85829376 -18.84895687 130.49058934 -22.3984375 126.73828125 C-26.81832419 120.18465616 -27.65397077 114.97810616 -27.61499023 107.23510742 C-27.62185349 106.27479111 -27.62871674 105.31447479 -27.63578796 104.32505798 C-27.65402225 101.16446965 -27.65022242 98.00437943 -27.64453125 94.84375 C-27.64909536 92.63568461 -27.65440162 90.42762064 -27.66041565 88.21955872 C-27.6693407 83.59545109 -27.66693125 78.97151622 -27.65698242 74.34741211 C-27.64550654 68.43956645 -27.66568664 62.53231973 -27.69489956 56.62455273 C-27.71330307 52.06472522 -27.71296057 47.50504006 -27.70726204 42.94518471 C-27.70710926 40.76802036 -27.71311714 38.5908461 -27.72555351 36.41371727 C-27.74053612 33.36031648 -27.72973198 30.30800681 -27.71264648 27.25463867 C-27.72231445 26.36651489 -27.73198242 25.47839111 -27.74194336 24.56335449 C-27.652731 16.89735 -25.67860123 10.18538113 -20.8984375 4.11328125 C-14.74534741 -0.60885766 -7.43044642 -3.19010332 0 0 Z " fill="#FDFDFE" transform="translate(309.2109375,38.94921875)"/>
<path d="M0 0 C0.69029297 -0.061875 1.38058594 -0.12375 2.09179688 -0.1875 C4.36728071 -0.23926456 5.93800728 -0.0806163 8.0625 0.75 C10.67566265 3.38335584 12.2849694 6.51601614 14.0625 9.75 C15.03981795 11.39396034 16.01733805 13.03780608 16.99926758 14.67901611 C18.81563017 17.73007933 20.59209444 20.80431198 22.375 23.875 C23.87887606 26.45650706 25.38462568 29.03691866 26.890625 31.6171875 C27.25446793 32.24109375 27.61831085 32.865 27.99317932 33.5078125 C31.49596007 39.50764731 35.0759308 45.45823807 38.69140625 51.390625 C40.0625 53.75 40.0625 53.75 40.0625 54.75 C37.3322611 54.8583667 34.60635457 54.93746694 31.875 55 C30.72161133 55.05027344 30.72161133 55.05027344 29.54492188 55.1015625 C28.79404297 55.11445313 28.04316406 55.12734375 27.26953125 55.140625 C26.24049683 55.1720459 26.24049683 55.1720459 25.19067383 55.20410156 C21.08099355 54.32719376 18.66381472 51.65192801 16.39672852 48.25146484 C15.91647217 47.33059082 15.43621582 46.4097168 14.94140625 45.4609375 C14.39806641 44.43613281 13.85472656 43.41132813 13.29492188 42.35546875 C12.74384766 41.28941406 12.19277344 40.22335937 11.625 39.125 C10.52437866 37.02746722 9.42153264 34.9311002 8.31640625 32.8359375 C7.78160645 31.81725586 7.24680664 30.79857422 6.69580078 29.74902344 C4.65611721 26.00381073 2.43417539 22.39205839 0.14428711 18.79541016 C-0.9375 16.75 -0.9375 16.75 -0.9375 13.75 C-1.5975 13.75 -2.2575 13.75 -2.9375 13.75 C-3.20916992 14.62688477 -3.48083984 15.50376953 -3.76074219 16.40722656 C-4.87035204 19.55925523 -6.16959514 22.30469056 -7.765625 25.234375 C-8.31863281 26.25273437 -8.87164062 27.27109375 -9.44140625 28.3203125 C-10.30572266 29.89425781 -10.30572266 29.89425781 -11.1875 31.5 C-12.02861328 33.05074219 -12.02861328 33.05074219 -12.88671875 34.6328125 C-22.56193733 52.37443733 -22.56193733 52.37443733 -24.9375 54.75 C-27.80017567 54.82325168 -30.638219 54.84238205 -33.5 54.8125 C-34.30630859 54.80798828 -35.11261719 54.80347656 -35.94335938 54.79882812 C-37.94143756 54.78700518 -39.93947783 54.76906914 -41.9375 54.75 C-37.98415254 46.4094011 -33.53209514 38.47616759 -28.796875 30.5625 C-26.68034665 27.02397595 -24.62004896 23.45707821 -22.578125 19.875 C-21.71876343 18.38202393 -21.71876343 18.38202393 -20.84204102 16.85888672 C-19.71611897 14.90225096 -18.59908121 12.94047006 -17.49194336 10.97314453 C-16.97253174 10.07708496 -16.45312012 9.18102539 -15.91796875 8.2578125 C-15.46317139 7.46004395 -15.00837402 6.66227539 -14.53979492 5.84033203 C-10.71724644 0.85348758 -5.97233129 0.13308816 0 0 Z " fill="#EF7E25" transform="translate(276.9375,225.25)"/>
<path d="M0 0 C3.7378842 0.56050065 4.64204244 0.98315231 7.6015625 3.609375 C9.86285207 6.91674195 11.54515533 10.52447606 13.25976562 14.13720703 C16.02908724 19.66013648 19.27898009 24.91605802 22.43792725 30.2225647 C23.5805827 32.15087471 24.71086975 34.08583645 25.83642578 36.02416992 C26.1945636 36.64030655 26.55270142 37.25644318 26.92169189 37.89125061 C27.90378704 39.58236374 28.88526366 41.27383603 29.86669922 42.96533203 C31.16511583 45.12662692 32.53572827 47.24542854 33.95751953 49.32763672 C35.72265625 52.0546875 35.72265625 52.0546875 35.72265625 54.0546875 C32.99181723 54.19017565 30.26773818 54.28898605 27.53515625 54.3671875 C26.76623047 54.40908203 25.99730469 54.45097656 25.20507812 54.49414062 C24.07875977 54.51831055 24.07875977 54.51831055 22.9296875 54.54296875 C21.90065308 54.58224487 21.90065308 54.58224487 20.85083008 54.62231445 C16.50278537 53.46260309 14.18069876 49.77154801 11.85742188 46.13549805 C11.28701172 45.08144775 10.71660156 44.02739746 10.12890625 42.94140625 C9.81489868 42.36816116 9.50089111 41.79491608 9.17736816 41.20429993 C8.18423087 39.38793577 7.20294001 37.5655153 6.22265625 35.7421875 C4.92422434 33.34826379 3.62104268 30.95695333 2.31640625 28.56640625 C1.70410156 27.44411621 1.09179688 26.32182617 0.4609375 25.16552734 C-1.65937126 21.37100849 -3.91922525 17.70523633 -6.27734375 14.0546875 C-6.65955078 14.76898926 -7.04175781 15.48329102 -7.43554688 16.21923828 C-14.23564228 28.91725037 -21.03657536 41.60056588 -28.27734375 54.0546875 C-33.88734375 54.0546875 -39.49734375 54.0546875 -45.27734375 54.0546875 C-43.83073674 49.71486646 -42.68492184 46.72376937 -40.44140625 42.921875 C-39.87719971 41.95983154 -39.31299316 40.99778809 -38.73168945 40.0065918 C-38.12800537 38.99121338 -37.52432129 37.97583496 -36.90234375 36.9296875 C-35.97264771 35.35344604 -35.97264771 35.35344604 -35.02416992 33.74536133 C-33.74371771 31.57775149 -32.46041373 29.41182381 -31.17431641 27.24755859 C-29.37235959 24.21461248 -27.57993174 21.17622039 -25.7890625 18.13671875 C-24.72337621 16.33811489 -23.65700548 14.53991633 -22.58984375 12.7421875 C-22.09758301 11.9073584 -21.60532227 11.0725293 -21.09814453 10.21240234 C-20.63778809 9.44234863 -20.17743164 8.67229492 -19.703125 7.87890625 C-19.30520752 7.20947998 -18.90729004 6.54005371 -18.49731445 5.8503418 C-13.96437188 -0.8216199 -7.56088578 -0.44647536 0 0 Z " fill="#EE7D24" transform="translate(447.27734375,225.9453125)"/>
<path d="M0 0 C-0.33 3.3 -0.66 6.6 -1 10 C-1.80630859 9.98428955 -2.61261719 9.9685791 -3.44335938 9.95239258 C-7.1288337 9.88968024 -10.81419535 9.8508938 -14.5 9.8125 C-15.7684375 9.78736328 -17.036875 9.76222656 -18.34375 9.73632812 C-26.80940789 9.67019017 -33.31502991 9.78545162 -39.9375 15.5625 C-44.15089893 20.54197146 -43.41193601 25.71385655 -43 32 C-41.86536729 36.45748564 -39.89471915 38.44487747 -36.125 40.875 C-25.82641632 45.62819247 -11.93903587 43.55543401 -1 42 C-0.34 45.3 0.32 48.6 1 52 C-16.59026425 55.31110856 -37.10933367 57.04437608 -53.02734375 47.453125 C-57.86244415 43.89142728 -61.14021335 39.72307072 -63 34 C-63.84345486 26.05837959 -63.50077261 18.64824808 -58.59375 12.1328125 C-44.85913256 -2.96230949 -18.75295727 -3.98862213 0 0 Z " fill="#EF8028" transform="translate(229,227)"/>
<path d="M0 0 C1.19302734 -0.00128906 2.38605469 -0.00257813 3.61523438 -0.00390625 C5.47051758 0.00189453 5.47051758 0.00189453 7.36328125 0.0078125 C8.61173828 0.00394531 9.86019531 0.00007812 11.14648438 -0.00390625 C12.33564453 -0.00261719 13.52480469 -0.00132812 14.75 0 C15.83885498 0.00112793 16.92770996 0.00225586 18.04956055 0.00341797 C20.67578125 0.1328125 20.67578125 0.1328125 22.67578125 1.1328125 C22.67578125 3.7728125 22.67578125 6.4128125 22.67578125 9.1328125 C22.01570068 9.11710205 21.35562012 9.1013916 20.67553711 9.08520508 C17.65487398 9.02244562 14.63434855 8.98369267 11.61328125 8.9453125 C10.05577148 8.90760742 10.05577148 8.90760742 8.46679688 8.86914062 C2.38418963 8.81121103 -1.94536178 9.22594086 -7.32421875 12.1328125 C-7.32421875 13.7828125 -7.32421875 15.4328125 -7.32421875 17.1328125 C-1.90139392 19.79665628 3.38165204 21.67119777 9.23828125 23.1328125 C24.6005554 27.01997372 24.6005554 27.01997372 28.67578125 33.1328125 C29.1433947 37.34133355 29.15806908 39.91290799 27.61328125 43.8203125 C21.69064385 50.88926682 13.70175975 53.98101375 4.67578125 55.1328125 C-17.43971544 56.42764694 -17.43971544 56.42764694 -24.32421875 54.1328125 C-24.44921875 46.3828125 -24.44921875 46.3828125 -23.32421875 44.1328125 C-21.85275391 44.37257813 -21.85275391 44.37257813 -20.3515625 44.6171875 C-11.1818858 45.91758922 0.52543051 47.05698274 8.67578125 42.1328125 C9.81018903 39.56201115 9.81018903 39.56201115 9.67578125 37.1328125 C4.16368491 33.13152629 -2.52839068 32.15635896 -9.04492188 30.64648438 C-15.51617032 29.01652487 -20.46300732 26.79817187 -25.32421875 22.1328125 C-27.07038236 18.64048529 -26.88095278 14.94378951 -26.32421875 11.1328125 C-22.60683142 5.68064441 -15.42934821 2.14080995 -9.06323242 0.57763672 C-6.00024775 0.08019862 -3.10316402 0.00320457 0 0 Z " fill="#EF7E25" transform="translate(128.32421875,225.8671875)"/>
<path d="M0 0 C15.51 0 31.02 0 47 0 C47 2.64 47 5.28 47 8 C37.1 8 27.2 8 17 8 C17 12.62 17 17.24 17 22 C26.57 22 36.14 22 46 22 C46 24.97 46 27.94 46 31 C36.43 31 26.86 31 17 31 C17 38.26 17 45.52 17 53 C5.88261939 53.61084509 5.88261939 53.61084509 2.3359375 51.15625 C-1.08271675 46.53706499 -0.6294106 42.61247491 -0.48828125 37.01171875 C-0.48120651 35.95338333 -0.47413177 34.89504791 -0.46684265 33.80464172 C-0.43890219 30.43153563 -0.37616121 27.06010254 -0.3125 23.6875 C-0.28741682 21.39781047 -0.26460369 19.10809486 -0.24414062 16.81835938 C-0.19333164 11.21107997 -0.09547232 5.60740754 0 0 Z " fill="#EF7D24" transform="translate(13,227)"/>
<path d="M0 0 C5.61 0 11.22 0 17 0 C17 14.85 17 29.7 17 45 C26.57 45 36.14 45 46 45 C46 47.97 46 50.94 46 54 C40.25263756 54.14853034 34.50639629 54.25730179 28.75756836 54.32958984 C26.80294329 54.35972831 24.84845308 54.4006477 22.89428711 54.45263672 C20.08153001 54.52558389 17.27056294 54.55948459 14.45703125 54.5859375 C13.15050346 54.63238907 13.15050346 54.63238907 11.81758118 54.67977905 C7.40326339 54.68221729 5.53670611 54.41100659 1.93945312 51.65625 C-1.10105329 47.18100115 -0.62021806 42.12362278 -0.48828125 36.9140625 C-0.48120651 35.85714203 -0.47413177 34.80022156 -0.46684265 33.71127319 C-0.43894115 30.34845034 -0.37620755 26.98731628 -0.3125 23.625 C-0.28741178 21.33986786 -0.26459953 19.05470952 -0.24414062 16.76953125 C-0.18912783 11.17904067 -0.10288181 5.58980628 0 0 Z " fill="#EE7E24" transform="translate(322,226)"/>
<path d="M0 0 C5.61 0 11.22 0 17 0 C17 17.82 17 35.64 17 54 C5 54 5 54 1.78051758 52.20043945 C-0.87853311 47.42085691 -0.62103971 43.17405137 -0.48828125 37.79296875 C-0.48120651 36.71243729 -0.47413177 35.63190582 -0.46684265 34.51863098 C-0.43889847 31.07421055 -0.37615633 27.63142745 -0.3125 24.1875 C-0.28741733 21.84963288 -0.26460411 19.51174024 -0.24414062 17.17382812 C-0.18907107 11.44858979 -0.10279496 5.7245723 0 0 Z " fill="#EF7E25" transform="translate(377,226)"/>
<path d="M0 0 C5.61 0 11.22 0 17 0 C17 17.82 17 35.64 17 54 C5 54 5 54 1.78051758 51.69287109 C-1.06383506 47.1875112 -0.61858836 42.05927377 -0.48828125 36.9140625 C-0.48120651 35.85714203 -0.47413177 34.80022156 -0.46684265 33.71127319 C-0.43894115 30.34845034 -0.37620755 26.98731628 -0.3125 23.625 C-0.28741178 21.33986786 -0.26459953 19.05470952 -0.24414062 16.76953125 C-0.18912783 11.17904067 -0.10288181 5.58980628 0 0 Z " fill="#EF7D24" transform="translate(72,226)"/>
<path d="M0 0 C3.43940749 1.92297626 6.36680854 4.34256864 9.375 6.875 C10.58349609 7.85146484 10.58349609 7.85146484 11.81640625 8.84765625 C14.64647762 11.14679296 17.42075009 13.42075009 20 16 C19.625 18.625 19.625 18.625 19 21 C12.48554795 21.0505939 5.97114632 21.08568856 -0.54345703 21.10986328 C-2.76092421 21.11993825 -4.97837805 21.13359859 -7.19580078 21.15087891 C-10.37796312 21.17506163 -13.55995024 21.18646797 -16.7421875 21.1953125 C-18.23599442 21.21079636 -18.23599442 21.21079636 -19.75997925 21.22659302 C-21.14118454 21.22681961 -21.14118454 21.22681961 -22.55029297 21.22705078 C-23.3630368 21.231492 -24.17578064 21.23593323 -25.01315308 21.24050903 C-27 21 -27 21 -29 19 C-29.0078125 17.18359375 -29.0078125 17.18359375 -28 15 C-25.9902038 13.20865991 -24.04381922 11.63400409 -21.875 10.0625 C-21.28114502 9.62373535 -20.68729004 9.1849707 -20.07543945 8.73291016 C-18.90506123 7.86951376 -17.73203786 7.00968928 -16.55615234 6.15380859 C-15.29631784 5.21970476 -14.07336588 4.23599271 -12.86328125 3.23828125 C-8.7811378 -0.08262332 -5.11357286 -1.12013176 0 0 Z " fill="#ED7E26" transform="translate(436,93)"/>
<path d="M0 0 C3.83784404 1.91892202 7.36201374 4.31446447 10.5 7.25 C10.5 7.91 10.5 8.57 10.5 9.25 C3.57 9.25 -3.36 9.25 -10.5 9.25 C-10.5 6.25 -10.5 6.25 -8.92578125 4.609375 C-3.30748813 0.33074881 -3.30748813 0.33074881 0 0 Z " fill="#F0822A" transform="translate(441.5,261.75)"/>
<path d="M0 0 C3.67371251 1.74501344 6.74451527 4.19378893 9.5 7.1875 C9.5 7.8475 9.5 8.5075 9.5 9.1875 C2.57 9.1875 -4.36 9.1875 -11.5 9.1875 C-9.07418248 4.33586496 -5.71876565 0.42890742 0 0 Z " fill="#F08129" transform="translate(275.5,261.8125)"/>
</svg>
